# xmcd
#
# Track frame offsets: 
#        300
#        13011
#        32364
#        39733
#        57133
#        72259
#
# Disc length: 1245 seconds
#
# Revision: 0
# Processed by: cddbd v1.5.2PL0 Copyright (c) Steve Scherf et al.
# Submitted via: ExactAudioCopy v0.95b4
#
DISCID=4704d906
DTITLE=Monoton - Havn
DYEAR=2004
DGENRE=Blues Rock
TTITLE0=Will You Miss Me (Sketch)
TTITLE1=Will You Miss Me (Band)
TTITLE2=Heal Me Now (Sketch)
TTITLE3=Heal Me Now (Band)
TTITLE4=Down Below (Sketch)
TTITLE5=Down Below (Band)
EXTD=
EXTT0=
EXTT1=
EXTT2=
EXTT3=
EXTT4=
EXTT5=
PLAYORDER=
